<svg width="196" height="174" viewBox="0 0 196 174" fill="none" xmlns="http://www.w3.org/2000/svg">
<path d="M87.9697 133.656C87.9697 121.225 97.9586 111.698 111.37 111.698C124.831 111.698 134.776 121.23 134.776 133.656C134.776 146.13 124.831 155.614 111.37 155.614C97.964 155.614 87.9697 146.13 87.9697 133.656ZM111.37 145.429C118.259 145.429 123.139 140.42 123.139 133.656C123.139 126.94 118.259 121.931 111.37 121.931C104.53 121.931 99.6015 126.94 99.6015 133.656C99.6015 140.42 104.53 145.429 111.37 145.429Z" fill="white"/>
<path d="M136.687 112.653H146.824L154.056 143.236L161.934 113.309H170.658L178.503 143.236L185.773 112.653H195.911L185.082 154.654H172.878L166.299 129.192L159.719 154.659H147.515L136.687 112.653Z" fill="white"/>
<path d="M56.4473 112.577H68.4862L67.9932 118.318C70.228 113.935 74.4728 111.698 79.4023 111.698C82.004 111.698 84.1949 112.356 85.1041 112.661L84.1894 122.702C83.0008 122.307 81.0893 121.739 78.7615 121.739C73.6074 121.739 68.174 124.412 68.174 133.089V154.659H56.4473V112.577Z" fill="white"/>
<path d="M35.9605 112.581L35.5417 117.483L35.5308 117.717C35.5253 117.711 35.5253 117.711 35.5199 117.706V117.711L35.5036 117.695C32.604 114.165 28.1214 111.698 21.1582 111.698C8.83103 111.698 0.0888672 120.864 0.0888672 133.799C0.0888672 146.644 8.83647 155.99 21.1582 155.99C27.5502 155.99 32.6693 153.731 35.2969 150.323V151.785C35.2969 158.872 29.9058 163.519 21.6532 163.519C16.7409 163.519 9.52735 161.014 5.39291 157.155L4.46267 168.032C9.27711 171.674 15.457 173.753 21.6532 173.753C37.0649 173.753 46.759 164.715 46.8026 150.637L46.895 112.592H35.9605V112.581ZM23.1057 145.799C16.4417 145.799 11.785 140.487 11.785 133.751C11.785 126.888 16.4471 121.885 23.1057 121.885C29.6827 121.885 34.47 126.978 34.47 133.751C34.47 140.487 29.6827 145.799 23.1057 145.799Z" fill="white"/>
<path d="M77.3593 21.6062C76.1049 21.6002 74.8445 21.5524 73.5901 21.5943C72.0908 21.6421 70.5915 21.648 69.0922 21.66C67.563 21.6719 66.0279 21.6779 64.4987 21.7018C62.4618 21.7317 58.9854 21.7257 58.9854 21.7257C59.069 21.6122 59.744 20.8533 59.8455 20.7577C60.6639 20.0168 63.9372 16.6886 65.114 15.5234C65.8786 14.7705 71.5532 8.95064 72.491 8.03045C73.1063 7.42695 73.7454 6.84735 74.3666 6.24982C75.2268 5.42524 76.1228 4.6365 76.9531 3.77607C77.4548 3.25622 77.9805 2.76625 78.4942 2.26433C78.5599 2.20457 78.757 1.98947 78.8586 2.03727C78.9721 2.08507 78.9542 3.76412 78.9482 4.38554C78.9422 5.51487 78.984 6.63821 78.996 7.76156C79.0139 10.1995 79.0019 12.6314 79.0378 15.0693C79.0497 15.8999 79.0139 16.7364 79.0318 17.561C79.0557 18.7441 79.0258 19.9212 79.0378 21.1043C79.0437 21.5405 79.0019 21.5644 78.5778 21.5644C78.1716 21.5644 77.7655 21.5823 77.3593 21.5943C77.3652 21.6062 77.3652 21.6062 77.3593 21.6062Z" fill="white"/>
<path d="M120.96 57.8817C121.975 57.9594 122.991 57.8937 124 57.9116C124.365 57.9176 127.22 57.9355 127.662 57.9415C128.946 57.9594 133.456 57.9057 134.43 57.8698C134.543 57.8638 134.704 57.7981 134.764 57.9415C134.812 58.067 134.663 58.1267 134.591 58.2044C132.984 59.8596 131.371 61.5027 129.77 63.1639C128.277 64.7174 126.742 66.2232 125.225 67.7529C123.821 69.169 122.429 70.609 121.014 72.0132C119.717 73.2979 118.493 74.6483 117.209 75.939C116.635 76.5126 116.068 77.0862 115.494 77.6598C115.423 77.7315 115.351 77.8271 115.231 77.7734C115.112 77.7256 115.124 77.6061 115.13 77.5045C115.184 75.9449 115.16 74.8216 115.184 73.4772C115.178 71.4516 115.04 65.4106 115.1 64.0721C115.148 61.7716 115.124 60.3854 115.154 58.539C115.16 58.055 115.47 57.828 115.966 57.8399C116.163 57.8519 120.47 57.8459 120.96 57.8817Z" fill="white"/>
<path d="M115.313 18.5291C115.289 17.0352 115.277 15.5414 115.235 14.0476C115.223 13.5278 115.235 13.0139 115.217 12.494C115.211 12.2013 115.253 9.1957 115.247 7.9887C115.241 6.226 115.2 4.4633 115.17 2.69463C115.164 2.50342 115.14 2.31819 115.128 2.12698C115.122 2.03735 115.092 1.93577 115.194 1.88797C115.289 1.84017 115.331 1.94175 115.385 1.98955C116.782 3.29813 118.097 4.69036 119.441 6.04674C120.617 7.23582 121.806 8.41294 123.007 9.57812C124.1 10.6357 125.151 11.7471 126.238 12.8048C128.138 14.6511 129.918 16.605 131.799 18.4693C132.707 19.3716 133.609 20.2798 134.511 21.188C134.601 21.2777 134.756 21.3553 134.708 21.4987C134.655 21.672 134.475 21.6242 134.344 21.6242C132.11 21.6242 129.876 21.6422 127.636 21.6003C126.095 21.5764 124.548 21.5884 123.007 21.5585C121.286 21.5286 119.56 21.4928 117.84 21.4689C117.129 21.4569 116.418 21.445 115.707 21.4509C115.421 21.4569 115.343 21.3374 115.343 21.0745C115.343 20.232 115.325 19.3775 115.313 18.5291Z" fill="white"/>
<path d="M96.6298 21.642C97.8245 21.6539 99.0191 21.648 100.208 21.6719C101.444 21.6898 102.101 21.6719 103.045 21.6778C103.959 21.6838 104.879 21.6719 105.799 21.6599C107.053 21.642 108.314 21.6898 109.568 21.7017C110.273 21.7077 110.984 21.7973 111.689 21.7555L111.921 21.7376C112.101 21.7256 112.244 21.5703 112.244 21.3791C112.244 20.8234 112.238 19.7598 112.232 19.3116C112.232 19.1443 112.238 17.6386 112.238 17.4593C112.274 14.8123 112.119 8.96847 112.119 8.69361C112.119 7.37308 112.154 1.83402 112.083 0.328253C112.071 0.0474165 111.742 0.023515 111.491 0.00558922C111.025 -0.0183118 107.931 0.0414418 107.215 0.0533923C106.551 0.0653428 100.536 0.0713171 99.5985 0.0593666C99.3954 0.0593666 92.2693 0.0294895 90.2025 0.0235143C90.0651 0.0235143 85.5851 0.0175393 85.4119 0.035465C85.3044 0.0474155 83.3929 0.023515 82.5507 0.00558922C82.1266 -0.00636128 82.2042 0.0832671 82.1863 0.537386C82.1564 1.39185 82.1863 2.079 82.2222 3.03504C82.246 3.63257 82.1923 14.5792 82.1206 16.1507C82.0489 17.7939 82.0848 20.2019 82.0967 21.0684C82.1027 21.5165 82.037 21.5882 82.4671 21.5822C84.0022 21.5703 85.5373 21.6061 87.0725 21.5464C88.2253 21.4986 89.3842 21.5703 90.537 21.5763C92.2573 21.5822 93.9717 21.6659 95.692 21.648L96.6298 21.642Z" fill="white"/>
<path d="M57.4043 24.7429C57.4043 24.8205 57.4162 24.7488 57.4162 24.8265C57.3924 26.9716 57.4162 29.1167 57.4162 31.2619C57.4162 32.0506 57.4103 32.8393 57.4103 33.6281C57.4103 36.7412 57.4103 39.8602 57.4103 42.9734C57.4103 46.8632 57.4103 50.7591 57.4162 54.649H57.8463V54.655C57.8583 54.655 57.8642 54.655 57.8762 54.655C58.2465 54.6908 58.6229 54.655 58.9932 54.655C59.9848 54.649 60.9763 54.6669 61.9679 54.6849C63.8734 54.7207 65.7849 54.7566 67.6903 54.7924C69.4226 54.8223 71.1489 54.8522 72.8812 54.894C73.9026 54.9179 74.924 54.9179 75.9455 54.9179H78.1735C78.1974 54.894 78.7947 54.882 78.8545 54.8044C79.0098 54.5952 78.9381 54.3383 78.9321 54.0156C78.9202 53.4241 78.9262 52.8265 78.9262 52.235C78.9381 48.2316 78.9082 44.2282 78.9799 40.2247C78.9799 40.2008 78.9859 40.1829 78.9859 40.159V39.4838C78.9799 39.4241 78.9799 39.3464 78.9799 39.2448C79.0038 36.6276 78.9501 34.0105 79.0217 31.3873C79.0695 29.5709 79.0396 27.7484 79.0456 25.926C79.0456 25.6332 79.0516 25.3404 79.0396 25.0476C79.0277 24.7907 78.9202 24.7309 78.6574 24.7847C78.5558 24.8026 78.4543 24.8086 78.3527 24.8086C77.4149 24.7966 76.4831 24.7966 75.5453 24.7668C74.2132 24.7309 73.0604 24.713 71.8179 24.707C69.6496 24.701 67.6306 24.8205 65.4623 24.7787C64.0526 24.7488 62.4398 24.7488 61.0241 24.7429C59.943 24.7429 57.4043 24.7429 57.4043 24.7429Z" fill="white"/>
<path d="M136.467 24.8743H136.897C136.897 24.952 136.897 25.0297 136.897 25.1074C136.909 27.2286 136.873 29.3558 136.861 31.477C136.855 32.2597 136.855 33.0365 136.849 33.8193C136.831 36.9025 136.813 39.9857 136.795 43.0749C136.772 46.929 136.748 50.777 136.724 54.6311H136.294V54.6371C136.282 54.6371 136.276 54.6371 136.264 54.6371C135.888 54.6669 135.511 54.6371 135.135 54.6311C134.137 54.6191 133.134 54.6311 132.136 54.643C130.213 54.6669 128.283 54.6908 126.36 54.7147C124.616 54.7386 122.872 54.7566 121.121 54.7864C120.094 54.8044 119.061 54.7984 118.033 54.7924L115.781 54.7805C115.757 54.7566 115.154 54.7386 115.094 54.6669C114.939 54.4578 115.017 54.2068 115.023 53.8902C115.035 53.3046 115.035 52.713 115.035 52.1275C115.041 48.1659 115.1 44.2043 115.047 40.2427C115.047 40.2188 115.041 40.2009 115.041 40.177L115.047 39.5077C115.053 39.448 115.053 39.3703 115.053 39.2687C115.047 36.6755 115.112 34.0882 115.053 31.4949C115.011 29.6964 115.053 27.8918 115.065 26.0873C115.065 25.7945 115.065 25.5077 115.076 25.2149C115.088 24.964 115.196 24.9042 115.465 24.958C115.566 24.9759 115.668 24.9879 115.775 24.9819C116.719 24.9759 117.663 24.9879 118.607 24.958C119.861 24.9162 121.115 24.9162 122.37 24.9221C124.562 24.9281 126.748 24.8863 128.941 24.8564C130.368 24.8385 131.79 24.8624 133.217 24.8684C134.299 24.8684 135.386 24.8684 136.467 24.8684V24.8743Z" fill="white"/>
<path d="M79.2063 61.1505C79.2063 62.6742 79.1944 64.2039 79.2123 65.7275C79.2183 66.2593 79.2004 66.7852 79.2063 67.317C79.2123 67.6157 79.0869 75.527 79.0869 77.3315C79.0869 77.5227 79.1108 77.7199 79.1227 77.9111C79.1287 78.0007 79.1585 78.1083 79.051 78.1561C78.9495 78.2039 78.9077 78.1023 78.8539 78.0485C77.4024 76.6921 76.0524 75.2461 74.6547 73.836C73.4361 72.6051 72.2116 71.3801 70.9632 70.1672C69.8342 69.0677 68.7471 67.9145 67.6181 66.815C65.6529 64.903 63.8131 62.8714 61.8718 60.9354C60.9339 59.9973 60.0021 59.0532 59.0643 58.1091C58.9747 58.0195 58.8134 57.9358 58.8612 57.7864C58.9209 57.6131 59.1061 57.661 59.2495 57.661C61.597 57.6968 63.9445 57.7207 66.292 57.7924C67.9108 57.8462 69.5355 57.8581 71.1543 57.9059C72.9642 57.9657 74.8279 57.8761 76.6378 57.9358C77.3845 57.9597 78.1311 57.9836 78.8778 57.9896C79.1765 57.9896 79.2004 58.2585 79.2004 58.5274C79.2004 59.4057 79.2063 60.2781 79.2063 61.1505Z" fill="white"/>
<path d="M99.9638 79.399C100.914 79.4468 104.635 79.399 105.555 79.387C106.809 79.3691 108.07 79.4169 109.33 79.4289C110.035 79.4348 110.746 79.5304 111.45 79.4826L111.683 79.4647C111.863 79.4528 112.006 79.2974 112.006 79.1062C112.006 78.5505 112 77.4809 111.994 77.0268C111.994 76.8595 112 75.3478 112 75.1685C112.036 72.5155 111.958 69.8565 111.887 67.2035C111.881 66.9227 111.881 66.6478 111.881 66.367C111.881 65.0405 111.887 59.5432 111.815 58.0315C111.803 57.7506 111.767 57.7028 111.51 57.6909C111.044 57.667 106.994 57.6969 106.976 57.6969C106.522 57.6969 99.5994 57.7208 99.3545 57.7028C99.1514 57.6849 92.0252 57.673 89.9525 57.667C89.8151 57.667 85.3292 57.661 85.1619 57.6789C85.0544 57.6909 83.1429 57.667 82.3007 57.6431C81.8766 57.6311 81.9542 57.7208 81.9363 58.1749C81.9064 59.0353 81.9363 59.7225 81.9722 60.6845C81.996 61.288 81.9841 61.8915 81.9901 62.489C81.996 63.1702 81.9901 63.8514 82.002 64.5266C82.0259 66.0563 82.0259 67.5859 81.9841 69.1156C81.9363 70.693 81.9423 72.2705 81.8706 73.842C81.7989 75.4912 81.8348 77.9111 81.8467 78.7776C81.8527 79.2257 81.787 79.2974 82.223 79.2974C83.7582 79.2855 85.2933 79.3213 86.8285 79.2616C87.9813 79.2137 89.1401 79.2855 90.293 79.2914C92.0133 79.2974 93.7276 79.3811 95.448 79.3631L99.9638 79.399Z" fill="white"/>
</svg>
